<?xml version="1.0"?>
<svg xmlns="http://www.w3.org/2000/svg" xmlns:xlink="http://www.w3.org/1999/xlink" xmlns:svgjs="http://svgjs.com/svgjs" version="1.1" width="512" height="512" x="0" y="0" viewBox="0 0 512 512" style="enable-background:new 0 0 512 512" xml:space="preserve" class=""><g><g xmlns="http://www.w3.org/2000/svg"><path d="m391.647 299.98c-3.686 0-6.674 2.988-6.674 6.674s2.988 6.674 6.674 6.674 6.674-2.988 6.674-6.674c0-3.687-2.988-6.674-6.674-6.674zm-32.82 0c-3.686 0-6.674 2.988-6.674 6.674s2.988 6.674 6.674 6.674 6.674-2.988 6.674-6.674c-.001-3.687-2.989-6.674-6.674-6.674zm-32.821 0c-3.686 0-6.674 2.988-6.674 6.674s2.988 6.674 6.674 6.674 6.674-2.988 6.674-6.674c0-3.687-2.988-6.674-6.674-6.674zm-136.045 147.926v-54.001c0-12.88-10.479-23.358-23.358-23.358h-54.002c-12.88 0-23.358 10.478-23.358 23.358v54.001c0 12.88 10.479 23.358 23.358 23.358h54.002c12.879 0 23.358-10.478 23.358-23.358zm-85.718-54.002c0-4.609 3.749-8.358 8.358-8.358h54.002c4.608 0 8.358 3.749 8.358 8.358v19.5h-70.718zm0 54.002v-19.501h70.718v19.501c0 4.609-3.749 8.358-8.358 8.358h-54.002c-4.609 0-8.358-3.749-8.358-8.358zm210.216-249.224c4.142 0 7.5-3.358 7.5-7.5v-14.061c0-4.142-3.358-7.5-7.5-7.5s-7.5 3.358-7.5 7.5v14.061c0 4.142 3.358 7.5 7.5 7.5zm-146.348 0c4.142 0 7.5-3.358 7.5-7.5v-14.061c0-4.142-3.358-7.5-7.5-7.5s-7.5 3.358-7.5 7.5v14.061c0 4.142 3.358 7.5 7.5 7.5zm57.262 207.035h63.742c4.142 0 7.5-3.358 7.5-7.5s-3.358-7.5-7.5-7.5h-63.742c-4.142 0-7.5 3.358-7.5 7.5s3.357 7.5 7.5 7.5zm15.912-198.665c9.561 0 18.653-4.141 24.946-11.361 2.722-3.123 2.397-7.86-.726-10.581-3.123-2.722-7.861-2.396-10.581.726-3.443 3.951-8.414 6.216-13.638 6.216s-10.195-2.266-13.638-6.216c-2.722-3.123-7.46-3.448-10.582-.726-3.123 2.721-3.448 7.459-.726 10.581 6.292 7.22 15.384 11.361 24.945 11.361zm138.58 196.867-38.579-11.673c-15.438-4.67-29.897 9.772-25.221 25.222l11.673 38.579c4.225 13.963 21.825 18.403 32.16 8.068l8.714-8.714 9.89 9.891c2.928 2.929 7.677 2.929 10.606 0s2.929-7.677 0-10.606l-9.89-9.891 8.714-8.714c10.319-10.319 5.921-27.929-8.067-32.162zm-2.538 21.554-28.035 28.035c-2.307 2.308-6.248 1.327-7.196-1.805l-11.673-38.579c-1.195-3.949 2.462-7.749 6.52-6.52l38.579 11.673c3.129.947 4.114 4.886 1.805 7.196zm70.392-244.327c-15.67-6.838-33.887.313-40.724 15.985-1.243 2.85-2.748 5.818-4.468 8.837 1.438-33.007-11.679-63.497-34.839-87.409 8.44-7.996 18.441-15.93 29.875-23.649 5.911-3.991 10.845-9.038 14.664-15 2.234-3.488 1.217-8.127-2.271-10.361-3.487-2.234-8.127-1.218-10.361 2.271-2.71 4.231-6.218 7.817-10.425 10.658-12.412 8.38-23.308 17.048-32.492 25.833-16.515-13.893-35.459-23.934-55.318-30.476 10.578-17.408 24.227-34.747 40.683-51.652 16.362-16.808 43.988-14.306 57.064 5.064 2.745 4.066 4.626 8.54 5.59 13.299.823 4.06 4.78 6.687 8.84 5.861 4.06-.823 6.684-4.781 5.861-8.84-1.359-6.705-4.003-13-7.859-18.712-18.391-27.242-57.237-30.77-80.245-7.134-18.356 18.856-33.422 38.305-44.873 57.887-14.485-3.45-29.645-5.244-45.136-5.244s-30.651 1.794-45.136 5.244c-11.451-19.581-26.518-39.03-44.873-57.887-22.972-23.6-61.826-20.149-80.245 7.134-16.049 23.772-9.801 56.004 13.976 72.055 11.435 7.72 21.436 15.653 29.876 23.649-35.143 36.286-42.445 83.344-28.006 120.023-13.694 5.22-21.417 19.006-19.745 32.737-12.776 5.456-21.428 18.093-21.428 32.511v172.803c.001 19.501 15.866 35.367 35.368 35.367h6.348c4.142 0 7.5-3.358 7.5-7.5s-3.358-7.5-7.5-7.5h-6.348c-11.231 0-20.368-9.137-20.368-20.368v-131.786h361.161v131.787c0 11.231-9.137 20.368-20.368 20.368h-278.06c-4.142 0-7.5 3.358-7.5 7.5s3.358 7.5 7.5 7.5h278.061c19.502 0 35.368-15.866 35.368-35.368v-172.804c0-10.266-4.4-19.521-11.409-25.988 16.035-15.972 29.165-35.155 38.247-55.973 6.835-15.668-.313-33.885-15.985-40.722zm-354.319-98.668c-16.902-11.41-21.349-34.324-9.936-51.23 13.073-19.365 40.698-21.877 57.064-5.064 16.456 16.905 30.105 34.243 40.683 51.651-20.602 6.787-39.347 17.043-55.318 30.476-9.184-8.784-20.08-17.453-32.493-25.833zm147.885.885c80.7 0 146.354 52.856 146.354 117.826 0 26.229-10.908 49.434-31.58 67.271h-221.904c-1.191-2.486-2.727-4.853-4.63-7.023-.156-.191-1.046-1.402-3.282-6.447-4.457-10.053-13.644-16.56-23.792-18.083-4.987-11.025-7.52-23.018-7.52-35.718 0-64.969 65.654-117.826 146.354-117.826zm-143.408 168.192c6.14 0 12.008 3.551 14.651 9.514 2.38 5.37 4.032 8.336 5.701 10.239 1.783 2.033 2.95 4.395 3.531 6.859.003.01.005.02.008.03 1.3 5.569-.426 11.662-5.017 15.69-6.611 5.799-16.717 5.205-22.579-1.478 0 0 0 0 0-.001-4.893-5.578-8.129-12.125-10.897-18.37-4.692-10.582 3.112-22.483 14.602-22.483zm323.989 78.291h-361.161v-26.017c0-7.936 4.554-14.929 11.378-18.274 2.761 5.648 6.114 11.388 10.813 16.745 11.34 12.928 30.925 14.112 43.748 2.864 6.54-5.736 10.077-13.636 10.498-21.702h264.358c11.231 0 20.368 9.137 20.368 20.368v26.016zm28.089-113.975c-8.875 20.346-21.963 38.986-37.992 54.171-3.308-1.027-6.823-1.581-10.464-1.581h-24.16c7.112-8.099 12.77-16.935 16.916-26.388 11.299-12.052 20.919-26.175 26.49-38.944 3.521-8.071 12.905-11.757 20.977-8.234 8.07 3.52 11.754 12.903 8.233 20.976zm-224.582 235.222h38.064c4.142 0 7.5-3.358 7.5-7.5s-3.358-7.5-7.5-7.5h-38.064c-4.142 0-7.5 3.358-7.5 7.5s3.357 7.5 7.5 7.5z" fill="#8573dd" data-original="#000000" style="" class=""/></g></g></svg>
