<svg id="Grupo_5209" data-name="Grupo 5209" xmlns="http://www.w3.org/2000/svg" width="155.406" height="40" viewBox="0 0 155.406 40">
  <g id="Grupo_3256" data-name="Grupo 3256" transform="translate(0 0)">
    <path id="Sustracción_57" data-name="Sustracción 57" d="M20,40A19.906,19.906,0,0,1,8.818,36.584a20.058,20.058,0,0,1-7.246-8.8A19.974,19.974,0,0,1,3.416,8.818a20.058,20.058,0,0,1,8.8-7.246A19.974,19.974,0,0,1,31.182,3.416a20.058,20.058,0,0,1,7.246,8.8,19.974,19.974,0,0,1-1.844,18.967,20.058,20.058,0,0,1-8.8,7.246A19.875,19.875,0,0,1,20,40ZM19.777,5.851a5.218,5.218,0,0,0-2.658.735c-2.659,1.551-6.373,3.7-7.846,4.551l-.078.045c-1.571,1.1-2.219,1.893-2.166,3.962l-.017,9.667a4.436,4.436,0,0,0,.425,2.117A4.262,4.262,0,0,0,8.561,28.3c.145.121.785.509.989.629l7.727,4.6a5.445,5.445,0,0,0,5.388,0l8.38-4.9a4.4,4.4,0,0,0,1.486-1.194,2.673,2.673,0,0,0,.479-1.642l.017-10.6a4.8,4.8,0,0,0-.5-2.351A4.5,4.5,0,0,0,30.6,11.162L22.982,6.744A6.785,6.785,0,0,0,19.777,5.851Zm.249,22.678a.077.077,0,0,1-.038-.01l-7.319-4.233a.077.077,0,0,1-.038-.066l.006-8.454a.077.077,0,0,1,.038-.066c.027-.016,5.433-3.16,7.289-4.234A.069.069,0,0,1,20,11.459a.2.2,0,0,1,.081.018L27.4,15.71a.076.076,0,0,1,.038.066l-.006,8.455a.077.077,0,0,1-.038.066l-7.325,4.222A.08.08,0,0,1,20.026,28.529Z" transform="translate(0 0)" fill="#fff"/>
  </g>
  <g id="Grupo_3261" data-name="Grupo 3261" transform="translate(67.63 2.775)" style="isolation: isolate">
    <path id="Trazado_3595" data-name="Trazado 3595" d="M1034.016,758.046H1027v-1.781h7.016c6.138,0,11.132-4.586,11.132-10.223s-4.994-10.222-11.132-10.222l-7.012-.034.009-1.781,7.008.034c7.2,0,13.067,5.385,13.067,12S1041.223,758.046,1034.016,758.046Z" transform="translate(-964.567 -728.767)" fill="#fff"/>
    <path id="Trazado_3596" data-name="Trazado 3596" d="M1033.986,736.384h-7.08v-1.827l7.08,0c9,0,16.318-6.892,16.318-15.363s-7.321-15.363-16.318-15.363h-7.1V702h7.1c10.07,0,18.262,7.712,18.262,17.192S1044.056,736.384,1033.986,736.384Z" transform="translate(-964.473 -701.934)" fill="#fff"/>
    <path id="Trazado_3597" data-name="Trazado 3597" d="M827.107,758.086H817v-1.781h10.107a17.1,17.1,0,0,0,3.813-.211,6.431,6.431,0,0,0,3.558-2.75,5.369,5.369,0,0,0,.3-5.139l-.02-.045A5.989,5.989,0,0,0,831.2,745.2a10.46,10.46,0,0,0-3.107-.489,3.73,3.73,0,0,1-3.51-2.59,2.75,2.75,0,0,1,.531-2.413c.193-.218.455-.517.757-.861.868-.992,1.971-2.1,2.815-3.009H817v-1.781h12.892a1.4,1.4,0,0,1,1.441.707c.128.273.24.828-.449,1.486-.744.711-2.4,2.458-3.5,3.712-.3.348-.569.65-.764.87a1.121,1.121,0,0,0-.151.864,1.819,1.819,0,0,0,1.627,1.233,12.478,12.478,0,0,1,3.79.6,7.88,7.88,0,0,1,4.681,3.985l0,.007a7.014,7.014,0,0,1-.417,6.724,8.29,8.29,0,0,1-4.667,3.554A17.736,17.736,0,0,1,827.107,758.086Z" transform="translate(-785.588 -728.807)" fill="#fff"/>
    <path id="Trazado_3598" data-name="Trazado 3598" d="M829.591,736.04H816.986v-1.826h12.605a11.138,11.138,0,0,0,7.458-3.083,10.1,10.1,0,0,0,3.369-7.264c0-5.184-2.616-8.736-7.774-10.557l-1.2-.424,4.8-6.145a2.091,2.091,0,0,0,.1-2.245,2,2,0,0,0-1.79-1.081l-17.565.045-.006-1.826,17.568-.045a3.93,3.93,0,0,1,3.523,2.083,3.811,3.811,0,0,1-.268,4.15L834.5,712.06c3.824,1.652,7.86,5.007,7.86,11.808a11.885,11.885,0,0,1-3.944,8.56A13.15,13.15,0,0,1,829.591,736.04Z" transform="translate(-785.765 -701.59)" fill="#fff"/>
    <path id="Trazado_3599" data-name="Trazado 3599" d="M607,702.169v1.489a.174.174,0,0,0,.179.168h9.032s.323-.009,1.131,0a12.04,12.04,0,0,1,3.878.761c2.715.993,7.434,4.244,7.434,10.346,0,7.455-7.11,10.345-8.811,10.605a.127.127,0,0,0-.073.214s0-.018,10.5,10.631h2.1l-9.7-9.889s7.919-3.195,7.919-11.715S622.675,702,617.666,702H607.179A.174.174,0,0,0,607,702.169Z" transform="translate(-606.99 -701.934)" fill="#fff"/>
    <path id="Trazado_3600" data-name="Trazado 3600" d="M606.937,734.005v1.807h9.545c2.1,0,6.869,1.2,6.869,6.325,0,3.463-3.394,6.174-7.073,6.023-2.465-.1-3.754,1.506-3.878,2.861s.429,2.156,1.778,3.463c9.023,8.745,9.039,8.734,9.039,8.734h2.263s-.018.009-10.369-10.239a1.743,1.743,0,0,1-.485-2.409,1.71,1.71,0,0,1,1.293-.6,8.941,8.941,0,0,0,4.886-1.054,8.052,8.052,0,0,0,4.363-6.776c0-3.915-3.028-8.132-8.9-8.131Z" transform="translate(-606.937 -728.767)" fill="#fff"/>
  </g>
</svg>
