<svg width="458.00000000000006" height="149" xmlns="http://www.w3.org/2000/svg">

 <g>
  <title>background</title>
  <rect fill="none" id="canvas_background" height="151" width="460" y="-1" x="-1"/>
 </g>
 <g>
  <title>Layer 1</title>
  <g id="svg_23">
   <g transform="matrix(-1,0,0,-1,511.9989929199221,512.0005116462706) " id="svg_19"/>
   <g stroke="null" id="svg_20">
    <path stroke="null" id="svg_2" fill="#00d7df" d="m53.646339,104.722188c0.466696,0.821664 1.142464,1.520315 1.978753,2.011188l46.81965,27.474513c1.672811,0.981747 3.733567,0.981747 5.406377,0l46.819185,-27.474513c0.836289,-0.490874 1.512057,-1.18976 1.978753,-2.011188l-51.501243,-30.22213l-51.501475,30.22213z"/>
    <path stroke="null" id="svg_3" fill="#5286fa" d="m105.147814,14.055798c-0.933392,0 -1.867016,0.245555 -2.703072,0.736428l-46.819417,27.474749c-1.672811,0.981747 -2.703072,2.795547 -2.703072,4.758569l0,54.949263c0,0.981747 0.257624,1.925716 0.724552,2.74738l51.501011,-30.22213l0,-60.44426z"/>
    <path stroke="null" id="svg_4" fill="#424ede" d="m107.851118,14.792226c-0.836289,-0.490874 -1.769681,-0.736428 -2.703072,-0.736428l0,60.44426l51.501475,30.22213c0.466696,-0.821664 0.724552,-1.765633 0.724552,-2.74738l0,-54.949263c0,-1.963258 -1.030494,-3.777294 -2.703072,-4.758569l-46.819882,-27.474749z"/>
   </g>
   <text stroke="null" transform="matrix(3.178325265509139,0,0,2.269165389016813,-360.55260924925716,-340.542266685144) " font-weight="bold" xml:space="preserve" text-anchor="start" font-family="Oswald, sans-serif" font-size="24" id="svg_21" y="191.22228" x="170.129389" stroke-opacity="null" stroke-width="0" fill="#ffffff">MAAK</text>
  </g>
 </g>
</svg>