<?xml version="1.0" standalone="no"?><svg xmlns="http://www.w3.org/2000/svg" viewBox="0 0 1440 320"><path fill="#8573dd" fill-opacity="1" d="M0,288L0,96L36.9,96L36.9,320L73.8,320L73.8,320L110.8,320L110.8,224L147.7,224L147.7,32L184.6,32L184.6,96L221.5,96L221.5,160L258.5,160L258.5,256L295.4,256L295.4,64L332.3,64L332.3,224L369.2,224L369.2,224L406.2,224L406.2,224L443.1,224L443.1,96L480,96L480,64L516.9,64L516.9,64L553.8,64L553.8,256L590.8,256L590.8,128L627.7,128L627.7,96L664.6,96L664.6,160L701.5,160L701.5,224L738.5,224L738.5,256L775.4,256L775.4,288L812.3,288L812.3,96L849.2,96L849.2,160L886.2,160L886.2,288L923.1,288L923.1,256L960,256L960,160L996.9,160L996.9,64L1033.8,64L1033.8,96L1070.8,96L1070.8,128L1107.7,128L1107.7,160L1144.6,160L1144.6,64L1181.5,64L1181.5,192L1218.5,192L1218.5,64L1255.4,64L1255.4,192L1292.3,192L1292.3,0L1329.2,0L1329.2,160L1366.2,160L1366.2,192L1403.1,192L1403.1,96L1440,96L1440,320L1403.1,320L1403.1,320L1366.2,320L1366.2,320L1329.2,320L1329.2,320L1292.3,320L1292.3,320L1255.4,320L1255.4,320L1218.5,320L1218.5,320L1181.5,320L1181.5,320L1144.6,320L1144.6,320L1107.7,320L1107.7,320L1070.8,320L1070.8,320L1033.8,320L1033.8,320L996.9,320L996.9,320L960,320L960,320L923.1,320L923.1,320L886.2,320L886.2,320L849.2,320L849.2,320L812.3,320L812.3,320L775.4,320L775.4,320L738.5,320L738.5,320L701.5,320L701.5,320L664.6,320L664.6,320L627.7,320L627.7,320L590.8,320L590.8,320L553.8,320L553.8,320L516.9,320L516.9,320L480,320L480,320L443.1,320L443.1,320L406.2,320L406.2,320L369.2,320L369.2,320L332.3,320L332.3,320L295.4,320L295.4,320L258.5,320L258.5,320L221.5,320L221.5,320L184.6,320L184.6,320L147.7,320L147.7,320L110.8,320L110.8,320L73.8,320L73.8,320L36.9,320L36.9,320L0,320L0,320Z"></path></svg>