<?xml version="1.0" standalone="no"?><svg xmlns="http://www.w3.org/2000/svg" viewBox="0 0 1440 320"><path fill="#8573dd" fill-opacity="1" d="M0,160L0,224L36.9,224L36.9,288L73.8,288L73.8,32L110.8,32L110.8,224L147.7,224L147.7,32L184.6,32L184.6,32L221.5,32L221.5,64L258.5,64L258.5,256L295.4,256L295.4,224L332.3,224L332.3,96L369.2,96L369.2,192L406.2,192L406.2,192L443.1,192L443.1,0L480,0L480,288L516.9,288L516.9,288L553.8,288L553.8,288L590.8,288L590.8,224L627.7,224L627.7,320L664.6,320L664.6,96L701.5,96L701.5,256L738.5,256L738.5,32L775.4,32L775.4,0L812.3,0L812.3,192L849.2,192L849.2,64L886.2,64L886.2,32L923.1,32L923.1,128L960,128L960,128L996.9,128L996.9,128L1033.8,128L1033.8,224L1070.8,224L1070.8,64L1107.7,64L1107.7,32L1144.6,32L1144.6,224L1181.5,224L1181.5,128L1218.5,128L1218.5,64L1255.4,64L1255.4,96L1292.3,96L1292.3,128L1329.2,128L1329.2,224L1366.2,224L1366.2,256L1403.1,256L1403.1,128L1440,128L1440,0L1403.1,0L1403.1,0L1366.2,0L1366.2,0L1329.2,0L1329.2,0L1292.3,0L1292.3,0L1255.4,0L1255.4,0L1218.5,0L1218.5,0L1181.5,0L1181.5,0L1144.6,0L1144.6,0L1107.7,0L1107.7,0L1070.8,0L1070.8,0L1033.8,0L1033.8,0L996.9,0L996.9,0L960,0L960,0L923.1,0L923.1,0L886.2,0L886.2,0L849.2,0L849.2,0L812.3,0L812.3,0L775.4,0L775.4,0L738.5,0L738.5,0L701.5,0L701.5,0L664.6,0L664.6,0L627.7,0L627.7,0L590.8,0L590.8,0L553.8,0L553.8,0L516.9,0L516.9,0L480,0L480,0L443.1,0L443.1,0L406.2,0L406.2,0L369.2,0L369.2,0L332.3,0L332.3,0L295.4,0L295.4,0L258.5,0L258.5,0L221.5,0L221.5,0L184.6,0L184.6,0L147.7,0L147.7,0L110.8,0L110.8,0L73.8,0L73.8,0L36.9,0L36.9,0L0,0L0,0Z"></path></svg>